{
  "accessors": [
    {
      "bufferView": 2,
      "componentType": 5126,
      "count": 24,
      "max": [
        0.16976594924926758,
        0.005002009216696024,
        0.005002009216696024
      ],
      "min": [
        0.1597619354724884,
        -0.005002009216696024,
        -0.005002009216696024
      ],
      "type": "VEC3"
    },
    {
      "bufferView": 2,
      "byteOffset": 288,
      "componentType": 5126,
      "count": 24,
      "max": [
        1.0,
        0.9999999403953552,
        0.9999999403953552
      ],
      "min": [
        -1.0,
        -0.9999999403953552,
        -0.9999999403953552
      ],
      "type": "VEC3"
    },
    {
      "bufferView": 1,
      "componentType": 5126,
      "count": 24,
      "max": [
        0.7499567270278931,
        0.9999133944511414
      ],
      "min": [
        8.658754813950509e-05,
        8.660554885864258e-05
      ],
      "type": "VEC2"
    },
    {
      "bufferView": 0,
      "componentType": 5125,
      "count": 36,
      "type": "SCALAR"
    },
    {
      "bufferView": 2,
      "byteOffset": 576,
      "componentType": 5126,
      "count": 65532,
      "max": [
        0.10514235496520996,
        0.23640242218971252,
        0.011480502784252167
      ],
      "min": [
        -0.048776548355817795,
        -0.08823597431182861,
        -0.034110330045223236
      ],
      "type": "VEC3"
    },
    {
      "bufferView": 2,
      "byteOffset": 786960,
      "componentType": 5126,
      "count": 65532,
      "max": [
        0.9999737739562988,
        0.9993746280670166,
        0.9999986886978149
      ],
      "min": [
        -0.9999774098396301,
        -0.9940600991249084,
        -0.999980628490448
      ],
      "type": "VEC3"
    },
    {
      "bufferView": 1,
      "byteOffset": 192,
      "componentType": 5126,
      "count": 65532,
      "max": [
        0.993973970413208,
        0.9993209838867188
      ],
      "min": [
        0.00036199999158270657,
        0.0003679990768432617
      ],
      "type": "VEC2"
    },
    {
      "bufferView": 0,
      "byteOffset": 144,
      "componentType": 5125,
      "count": 282657,
      "type": "SCALAR"
    },
    {
      "bufferView": 2,
      "byteOffset": 1573344,
      "componentType": 5126,
      "count": 65534,
      "max": [
        0.10507914423942566,
        0.23575085401535034,
        0.011446461081504822
      ],
      "min": [
        -0.04868130758404732,
        -0.08797465264797211,
        -0.03394505754113197
      ],
      "type": "VEC3"
    },
    {
      "bufferView": 2,
      "byteOffset": 2359752,
      "componentType": 5126,
      "count": 65534,
      "max": [
        0.9999737739562988,
        0.9997286200523376,
        0.9999986886978149
      ],
      "min": [
        -0.9999774098396301,
        -0.9999768137931824,
        -0.9999074935913086
      ],
      "type": "VEC3"
    },
    {
      "bufferView": 1,
      "byteOffset": 524448,
      "componentType": 5126,
      "count": 65534,
      "max": [
        0.9940299987792969,
        0.9993209838867188
      ],
      "min": [
        0.0003589999978430569,
        0.00038301944732666016
      ],
      "type": "VEC2"
    },
    {
      "bufferView": 0,
      "byteOffset": 1130772,
      "componentType": 5125,
      "count": 170556,
      "type": "SCALAR"
    },
    {
      "bufferView": 2,
      "byteOffset": 3146160,
      "componentType": 5126,
      "count": 28994,
      "max": [
        0.10499657690525055,
        0.23575085401535034,
        0.011468218639492989
      ],
      "min": [
        -0.04868130758404732,
        -0.08803461492061615,
        -0.03394505754113197
      ],
      "type": "VEC3"
    },
    {
      "bufferView": 2,
      "byteOffset": 3494088,
      "componentType": 5126,
      "count": 28994,
      "max": [
        0.9997120499610901,
        0.9993998408317566,
        0.9999178647994995
      ],
      "min": [
        -0.9999774098396301,
        -0.9999576210975647,
        -0.999980628490448
      ],
      "type": "VEC3"
    },
    {
      "bufferView": 1,
      "byteOffset": 1048720,
      "componentType": 5126,
      "count": 28994,
      "max": [
        0.9947749972343445,
        0.9994350075721741
      ],
      "min": [
        0.00036800000816583633,
        0.00036197900772094727
      ],
      "type": "VEC2"
    },
    {
      "bufferView": 0,
      "byteOffset": 1812996,
      "componentType": 5125,
      "count": 44007,
      "type": "SCALAR"
    }
  ],
  "asset": {
    "extras": {
      "author": "ffish.asia / floraZia.com (https://sketchfab.com/ffishAsia-and-floraZia)",
      "license": "CC0-1.0 (http://creativecommons.org/publicdomain/zero/1.0/)",
      "source": "https://sketchfab.com/3d-models/cc0-rice-oryza-sativa-554d18dae9a846b2beb80b6301fe0c37",
      "title": "CC0 イネ Rice, Oryza sativa"
    },
    "generator": "Sketchfab-17.14.0",
    "version": "2.0"
  },
  "bufferViews": [
    {
      "buffer": 0,
      "byteLength": 1989024,
      "name": "floatBufferViews",
      "target": 34963
    },
    {
      "buffer": 0,
      "byteLength": 1280672,
      "byteOffset": 1989024,
      "byteStride": 8,
      "name": "floatBufferViews",
      "target": 34962
    },
    {
      "buffer": 0,
      "byteLength": 3842016,
      "byteOffset": 3269696,
      "byteStride": 12,
      "name": "floatBufferViews",
      "target": 34962
    }
  ],
  "buffers": [
    {
      "byteLength": 7111712,
      "uri": "scene.bin"
    }
  ],
  "extensionsUsed": [
    "KHR_materials_unlit"
  ],
  "images": [
    {
      "uri": "textures/Material.001_baseColor.jpeg"
    },
    {
      "uri": "textures/QS1596-W20-1-1_baseColor.jpeg"
    }
  ],
  "materials": [
    {
      "doubleSided": true,
      "extensions": {
        "KHR_materials_unlit": {}
      },
      "name": "Material.001",
      "pbrMetallicRoughness": {
        "baseColorTexture": {
          "index": 0
        },
        "metallicFactor": 0.0
      }
    },
    {
      "doubleSided": true,
      "extensions": {
        "KHR_materials_unlit": {}
      },
      "name": "QS1596-W20-1-1",
      "pbrMetallicRoughness": {
        "baseColorTexture": {
          "index": 1
        },
        "metallicFactor": 0.0
      }
    }
  ],
  "meshes": [
    {
      "name": "Object_0",
      "primitives": [
        {
          "attributes": {
            "NORMAL": 1,
            "POSITION": 0,
            "TEXCOORD_0": 2
          },
          "indices": 3,
          "material": 0,
          "mode": 4
        }
      ]
    },
    {
      "name": "Object_1",
      "primitives": [
        {
          "attributes": {
            "NORMAL": 5,
            "POSITION": 4,
            "TEXCOORD_0": 6
          },
          "indices": 7,
          "material": 1,
          "mode": 4
        }
      ]
    },
    {
      "name": "Object_2",
      "primitives": [
        {
          "attributes": {
            "NORMAL": 9,
            "POSITION": 8,
            "TEXCOORD_0": 10
          },
          "indices": 11,
          "material": 1,
          "mode": 4
        }
      ]
    },
    {
      "name": "Object_3",
      "primitives": [
        {
          "attributes": {
            "NORMAL": 13,
            "POSITION": 12,
            "TEXCOORD_0": 14
          },
          "indices": 15,
          "material": 1,
          "mode": 4
        }
      ]
    }
  ],
  "nodes": [
    {
      "children": [
        1
      ],
      "matrix": [
        1.0,
        0.0,
        0.0,
        0.0,
        0.0,
        2.220446049250313e-16,
        -1.0,
        0.0,
        0.0,
        1.0,
        2.220446049250313e-16,
        0.0,
        0.0,
        0.0,
        0.0,
        1.0
      ],
      "name": "Sketchfab_model"
    },
    {
      "children": [
        2
      ],
      "name": "root"
    },
    {
      "children": [
        3,
        5
      ],
      "matrix": [
        1.0,
        0.0,
        0.0,
        0.0,
        0.0,
        2.220446049250313e-16,
        1.0,
        0.0,
        0.0,
        -1.0,
        2.220446049250313e-16,
        0.0,
        0.0,
        0.0,
        0.0,
        1.0
      ],
      "name": "GLTF_SceneRootNode"
    },
    {
      "children": [
        4
      ],
      "name": "_Cube_0"
    },
    {
      "mesh": 0,
      "name": "Object_4"
    },
    {
      "children": [
        6,
        7,
        8
      ],
      "name": "QS1596-W20-1-1_1"
    },
    {
      "mesh": 1,
      "name": "Object_6"
    },
    {
      "mesh": 2,
      "name": "Object_7"
    },
    {
      "mesh": 3,
      "name": "Object_8"
    }
  ],
  "samplers": [
    {
      "magFilter": 9729,
      "minFilter": 9987,
      "wrapS": 10497,
      "wrapT": 10497
    }
  ],
  "scene": 0,
  "scenes": [
    {
      "name": "Sketchfab_Scene",
      "nodes": [
        0
      ]
    }
  ],
  "textures": [
    {
      "sampler": 0,
      "source": 0
    },
    {
      "sampler": 0,
      "source": 1
    }
  ]
}
